<mxfile host="app.diagrams.net" modified="2024-06-14T12:51:22.316Z" agent="Mozilla/5.0 (Windows NT 10.0; Win64; x64) AppleWebKit/537.36 (KHTML, like Gecko) Chrome/121.0.0.0 Safari/537.36" etag="yJg3ggJ1hWg0l0yUR64E" version="24.5.4" type="device">
  <diagram name="PÃ¡gina-1" id="ugInMooUBMUGGvLow2E7">
    <mxGraphModel dx="1434" dy="782" grid="1" gridSize="10" guides="1" tooltips="1" connect="1" arrows="1" fold="1" page="1" pageScale="1" pageWidth="827" pageHeight="1169" math="0" shadow="0">
      <root>
        <mxCell id="0" />
        <mxCell id="1" parent="0" />
        <mxCell id="M_g8mWorpOVJh70sfZON-3" value="" style="shape=ext;double=1;rounded=1;whiteSpace=wrap;html=1;" vertex="1" parent="1">
          <mxGeometry x="960" y="490" width="540" height="320" as="geometry" />
        </mxCell>
        <mxCell id="M_g8mWorpOVJh70sfZON-4" value="" style="shape=ext;double=1;rounded=1;whiteSpace=wrap;html=1;" vertex="1" parent="1">
          <mxGeometry x="40" y="470" width="540" height="320" as="geometry" />
        </mxCell>
        <mxCell id="M_g8mWorpOVJh70sfZON-5" value="" style="shape=ext;double=1;rounded=1;whiteSpace=wrap;html=1;" vertex="1" parent="1">
          <mxGeometry x="971" y="70" width="540" height="320" as="geometry" />
        </mxCell>
        <mxCell id="M_g8mWorpOVJh70sfZON-15" value="Fornecedor" style="ellipse;shape=doubleEllipse;whiteSpace=wrap;html=1;" vertex="1" parent="1">
          <mxGeometry x="1176" y="80" width="130" height="50" as="geometry" />
        </mxCell>
        <mxCell id="M_g8mWorpOVJh70sfZON-16" value="Buscar" style="shape=ext;double=1;rounded=0;whiteSpace=wrap;html=1;" vertex="1" parent="1">
          <mxGeometry x="1156" y="180" width="150" height="20" as="geometry" />
        </mxCell>
        <mxCell id="M_g8mWorpOVJh70sfZON-17" value="" style="shape=table;startSize=0;container=1;collapsible=0;childLayout=tableLayout;fontSize=16;" vertex="1" parent="1">
          <mxGeometry x="1111" y="210" width="240" height="121" as="geometry" />
        </mxCell>
        <mxCell id="M_g8mWorpOVJh70sfZON-22" value="" style="shape=tableRow;horizontal=0;startSize=0;swimlaneHead=0;swimlaneBody=0;strokeColor=inherit;top=0;left=0;bottom=0;right=0;collapsible=0;dropTarget=0;fillColor=none;points=[[0,0.5],[1,0.5]];portConstraint=eastwest;fontSize=16;" vertex="1" parent="M_g8mWorpOVJh70sfZON-17">
          <mxGeometry width="240" height="15" as="geometry" />
        </mxCell>
        <mxCell id="M_g8mWorpOVJh70sfZON-23" value="" style="shape=partialRectangle;html=1;whiteSpace=wrap;connectable=0;strokeColor=inherit;overflow=hidden;fillColor=none;top=0;left=0;bottom=0;right=0;pointerEvents=1;fontSize=16;" vertex="1" parent="M_g8mWorpOVJh70sfZON-22">
          <mxGeometry width="80" height="15" as="geometry">
            <mxRectangle width="80" height="15" as="alternateBounds" />
          </mxGeometry>
        </mxCell>
        <mxCell id="M_g8mWorpOVJh70sfZON-24" value="" style="shape=partialRectangle;html=1;whiteSpace=wrap;connectable=0;strokeColor=inherit;overflow=hidden;fillColor=none;top=0;left=0;bottom=0;right=0;pointerEvents=1;fontSize=16;" vertex="1" parent="M_g8mWorpOVJh70sfZON-22">
          <mxGeometry x="80" width="80" height="15" as="geometry">
            <mxRectangle width="80" height="15" as="alternateBounds" />
          </mxGeometry>
        </mxCell>
        <mxCell id="M_g8mWorpOVJh70sfZON-25" value="" style="shape=partialRectangle;html=1;whiteSpace=wrap;connectable=0;strokeColor=inherit;overflow=hidden;fillColor=none;top=0;left=0;bottom=0;right=0;pointerEvents=1;fontSize=16;" vertex="1" parent="M_g8mWorpOVJh70sfZON-22">
          <mxGeometry x="160" width="80" height="15" as="geometry">
            <mxRectangle width="80" height="15" as="alternateBounds" />
          </mxGeometry>
        </mxCell>
        <mxCell id="M_g8mWorpOVJh70sfZON-48" value="" style="shape=tableRow;horizontal=0;startSize=0;swimlaneHead=0;swimlaneBody=0;strokeColor=inherit;top=0;left=0;bottom=0;right=0;collapsible=0;dropTarget=0;fillColor=none;points=[[0,0.5],[1,0.5]];portConstraint=eastwest;fontSize=16;" vertex="1" parent="M_g8mWorpOVJh70sfZON-17">
          <mxGeometry y="15" width="240" height="14" as="geometry" />
        </mxCell>
        <mxCell id="M_g8mWorpOVJh70sfZON-49" value="" style="shape=partialRectangle;html=1;whiteSpace=wrap;connectable=0;strokeColor=inherit;overflow=hidden;fillColor=none;top=0;left=0;bottom=0;right=0;pointerEvents=1;fontSize=16;" vertex="1" parent="M_g8mWorpOVJh70sfZON-48">
          <mxGeometry width="80" height="14" as="geometry">
            <mxRectangle width="80" height="14" as="alternateBounds" />
          </mxGeometry>
        </mxCell>
        <mxCell id="M_g8mWorpOVJh70sfZON-50" value="" style="shape=partialRectangle;html=1;whiteSpace=wrap;connectable=0;strokeColor=inherit;overflow=hidden;fillColor=none;top=0;left=0;bottom=0;right=0;pointerEvents=1;fontSize=16;" vertex="1" parent="M_g8mWorpOVJh70sfZON-48">
          <mxGeometry x="80" width="80" height="14" as="geometry">
            <mxRectangle width="80" height="14" as="alternateBounds" />
          </mxGeometry>
        </mxCell>
        <mxCell id="M_g8mWorpOVJh70sfZON-51" value="" style="shape=partialRectangle;html=1;whiteSpace=wrap;connectable=0;strokeColor=inherit;overflow=hidden;fillColor=none;top=0;left=0;bottom=0;right=0;pointerEvents=1;fontSize=16;" vertex="1" parent="M_g8mWorpOVJh70sfZON-48">
          <mxGeometry x="160" width="80" height="14" as="geometry">
            <mxRectangle width="80" height="14" as="alternateBounds" />
          </mxGeometry>
        </mxCell>
        <mxCell id="M_g8mWorpOVJh70sfZON-44" value="" style="shape=tableRow;horizontal=0;startSize=0;swimlaneHead=0;swimlaneBody=0;strokeColor=inherit;top=0;left=0;bottom=0;right=0;collapsible=0;dropTarget=0;fillColor=none;points=[[0,0.5],[1,0.5]];portConstraint=eastwest;fontSize=16;" vertex="1" parent="M_g8mWorpOVJh70sfZON-17">
          <mxGeometry y="29" width="240" height="15" as="geometry" />
        </mxCell>
        <mxCell id="M_g8mWorpOVJh70sfZON-45" value="" style="shape=partialRectangle;html=1;whiteSpace=wrap;connectable=0;strokeColor=inherit;overflow=hidden;fillColor=none;top=0;left=0;bottom=0;right=0;pointerEvents=1;fontSize=16;" vertex="1" parent="M_g8mWorpOVJh70sfZON-44">
          <mxGeometry width="80" height="15" as="geometry">
            <mxRectangle width="80" height="15" as="alternateBounds" />
          </mxGeometry>
        </mxCell>
        <mxCell id="M_g8mWorpOVJh70sfZON-46" value="" style="shape=partialRectangle;html=1;whiteSpace=wrap;connectable=0;strokeColor=inherit;overflow=hidden;fillColor=none;top=0;left=0;bottom=0;right=0;pointerEvents=1;fontSize=16;" vertex="1" parent="M_g8mWorpOVJh70sfZON-44">
          <mxGeometry x="80" width="80" height="15" as="geometry">
            <mxRectangle width="80" height="15" as="alternateBounds" />
          </mxGeometry>
        </mxCell>
        <mxCell id="M_g8mWorpOVJh70sfZON-47" value="" style="shape=partialRectangle;html=1;whiteSpace=wrap;connectable=0;strokeColor=inherit;overflow=hidden;fillColor=none;top=0;left=0;bottom=0;right=0;pointerEvents=1;fontSize=16;" vertex="1" parent="M_g8mWorpOVJh70sfZON-44">
          <mxGeometry x="160" width="80" height="15" as="geometry">
            <mxRectangle width="80" height="15" as="alternateBounds" />
          </mxGeometry>
        </mxCell>
        <mxCell id="M_g8mWorpOVJh70sfZON-52" value="" style="shape=tableRow;horizontal=0;startSize=0;swimlaneHead=0;swimlaneBody=0;strokeColor=inherit;top=0;left=0;bottom=0;right=0;collapsible=0;dropTarget=0;fillColor=none;points=[[0,0.5],[1,0.5]];portConstraint=eastwest;fontSize=16;" vertex="1" parent="M_g8mWorpOVJh70sfZON-17">
          <mxGeometry y="44" width="240" height="14" as="geometry" />
        </mxCell>
        <mxCell id="M_g8mWorpOVJh70sfZON-53" value="" style="shape=partialRectangle;html=1;whiteSpace=wrap;connectable=0;strokeColor=inherit;overflow=hidden;fillColor=none;top=0;left=0;bottom=0;right=0;pointerEvents=1;fontSize=16;" vertex="1" parent="M_g8mWorpOVJh70sfZON-52">
          <mxGeometry width="80" height="14" as="geometry">
            <mxRectangle width="80" height="14" as="alternateBounds" />
          </mxGeometry>
        </mxCell>
        <mxCell id="M_g8mWorpOVJh70sfZON-54" value="" style="shape=partialRectangle;html=1;whiteSpace=wrap;connectable=0;strokeColor=inherit;overflow=hidden;fillColor=none;top=0;left=0;bottom=0;right=0;pointerEvents=1;fontSize=16;" vertex="1" parent="M_g8mWorpOVJh70sfZON-52">
          <mxGeometry x="80" width="80" height="14" as="geometry">
            <mxRectangle width="80" height="14" as="alternateBounds" />
          </mxGeometry>
        </mxCell>
        <mxCell id="M_g8mWorpOVJh70sfZON-55" value="" style="shape=partialRectangle;html=1;whiteSpace=wrap;connectable=0;strokeColor=inherit;overflow=hidden;fillColor=none;top=0;left=0;bottom=0;right=0;pointerEvents=1;fontSize=16;" vertex="1" parent="M_g8mWorpOVJh70sfZON-52">
          <mxGeometry x="160" width="80" height="14" as="geometry">
            <mxRectangle width="80" height="14" as="alternateBounds" />
          </mxGeometry>
        </mxCell>
        <mxCell id="M_g8mWorpOVJh70sfZON-61" value="" style="shape=tableRow;horizontal=0;startSize=0;swimlaneHead=0;swimlaneBody=0;strokeColor=inherit;top=0;left=0;bottom=0;right=0;collapsible=0;dropTarget=0;fillColor=none;points=[[0,0.5],[1,0.5]];portConstraint=eastwest;fontSize=16;" vertex="1" parent="M_g8mWorpOVJh70sfZON-17">
          <mxGeometry y="58" width="240" height="15" as="geometry" />
        </mxCell>
        <mxCell id="M_g8mWorpOVJh70sfZON-62" value="" style="shape=partialRectangle;html=1;whiteSpace=wrap;connectable=0;strokeColor=inherit;overflow=hidden;fillColor=none;top=0;left=0;bottom=0;right=0;pointerEvents=1;fontSize=16;" vertex="1" parent="M_g8mWorpOVJh70sfZON-61">
          <mxGeometry width="80" height="15" as="geometry">
            <mxRectangle width="80" height="15" as="alternateBounds" />
          </mxGeometry>
        </mxCell>
        <mxCell id="M_g8mWorpOVJh70sfZON-63" value="" style="shape=partialRectangle;html=1;whiteSpace=wrap;connectable=0;strokeColor=inherit;overflow=hidden;fillColor=none;top=0;left=0;bottom=0;right=0;pointerEvents=1;fontSize=16;" vertex="1" parent="M_g8mWorpOVJh70sfZON-61">
          <mxGeometry x="80" width="80" height="15" as="geometry">
            <mxRectangle width="80" height="15" as="alternateBounds" />
          </mxGeometry>
        </mxCell>
        <mxCell id="M_g8mWorpOVJh70sfZON-64" value="" style="shape=partialRectangle;html=1;whiteSpace=wrap;connectable=0;strokeColor=inherit;overflow=hidden;fillColor=none;top=0;left=0;bottom=0;right=0;pointerEvents=1;fontSize=16;" vertex="1" parent="M_g8mWorpOVJh70sfZON-61">
          <mxGeometry x="160" width="80" height="15" as="geometry">
            <mxRectangle width="80" height="15" as="alternateBounds" />
          </mxGeometry>
        </mxCell>
        <mxCell id="M_g8mWorpOVJh70sfZON-57" value="" style="shape=tableRow;horizontal=0;startSize=0;swimlaneHead=0;swimlaneBody=0;strokeColor=inherit;top=0;left=0;bottom=0;right=0;collapsible=0;dropTarget=0;fillColor=none;points=[[0,0.5],[1,0.5]];portConstraint=eastwest;fontSize=16;" vertex="1" parent="M_g8mWorpOVJh70sfZON-17">
          <mxGeometry y="73" width="240" height="14" as="geometry" />
        </mxCell>
        <mxCell id="M_g8mWorpOVJh70sfZON-58" value="" style="shape=partialRectangle;html=1;whiteSpace=wrap;connectable=0;strokeColor=inherit;overflow=hidden;fillColor=none;top=0;left=0;bottom=0;right=0;pointerEvents=1;fontSize=16;" vertex="1" parent="M_g8mWorpOVJh70sfZON-57">
          <mxGeometry width="80" height="14" as="geometry">
            <mxRectangle width="80" height="14" as="alternateBounds" />
          </mxGeometry>
        </mxCell>
        <mxCell id="M_g8mWorpOVJh70sfZON-59" value="" style="shape=partialRectangle;html=1;whiteSpace=wrap;connectable=0;strokeColor=inherit;overflow=hidden;fillColor=none;top=0;left=0;bottom=0;right=0;pointerEvents=1;fontSize=16;" vertex="1" parent="M_g8mWorpOVJh70sfZON-57">
          <mxGeometry x="80" width="80" height="14" as="geometry">
            <mxRectangle width="80" height="14" as="alternateBounds" />
          </mxGeometry>
        </mxCell>
        <mxCell id="M_g8mWorpOVJh70sfZON-60" value="" style="shape=partialRectangle;html=1;whiteSpace=wrap;connectable=0;strokeColor=inherit;overflow=hidden;fillColor=none;top=0;left=0;bottom=0;right=0;pointerEvents=1;fontSize=16;" vertex="1" parent="M_g8mWorpOVJh70sfZON-57">
          <mxGeometry x="160" width="80" height="14" as="geometry">
            <mxRectangle width="80" height="14" as="alternateBounds" />
          </mxGeometry>
        </mxCell>
        <mxCell id="M_g8mWorpOVJh70sfZON-65" value="" style="shape=tableRow;horizontal=0;startSize=0;swimlaneHead=0;swimlaneBody=0;strokeColor=inherit;top=0;left=0;bottom=0;right=0;collapsible=0;dropTarget=0;fillColor=none;points=[[0,0.5],[1,0.5]];portConstraint=eastwest;fontSize=16;" vertex="1" parent="M_g8mWorpOVJh70sfZON-17">
          <mxGeometry y="87" width="240" height="20" as="geometry" />
        </mxCell>
        <mxCell id="M_g8mWorpOVJh70sfZON-66" value="" style="shape=partialRectangle;html=1;whiteSpace=wrap;connectable=0;strokeColor=inherit;overflow=hidden;fillColor=none;top=0;left=0;bottom=0;right=0;pointerEvents=1;fontSize=16;" vertex="1" parent="M_g8mWorpOVJh70sfZON-65">
          <mxGeometry width="80" height="20" as="geometry">
            <mxRectangle width="80" height="20" as="alternateBounds" />
          </mxGeometry>
        </mxCell>
        <mxCell id="M_g8mWorpOVJh70sfZON-67" value="" style="shape=partialRectangle;html=1;whiteSpace=wrap;connectable=0;strokeColor=inherit;overflow=hidden;fillColor=none;top=0;left=0;bottom=0;right=0;pointerEvents=1;fontSize=16;" vertex="1" parent="M_g8mWorpOVJh70sfZON-65">
          <mxGeometry x="80" width="80" height="20" as="geometry">
            <mxRectangle width="80" height="20" as="alternateBounds" />
          </mxGeometry>
        </mxCell>
        <mxCell id="M_g8mWorpOVJh70sfZON-68" value="" style="shape=partialRectangle;html=1;whiteSpace=wrap;connectable=0;strokeColor=inherit;overflow=hidden;fillColor=none;top=0;left=0;bottom=0;right=0;pointerEvents=1;fontSize=16;" vertex="1" parent="M_g8mWorpOVJh70sfZON-65">
          <mxGeometry x="160" width="80" height="20" as="geometry">
            <mxRectangle width="80" height="20" as="alternateBounds" />
          </mxGeometry>
        </mxCell>
        <mxCell id="M_g8mWorpOVJh70sfZON-26" value="" style="shape=tableRow;horizontal=0;startSize=0;swimlaneHead=0;swimlaneBody=0;strokeColor=inherit;top=0;left=0;bottom=0;right=0;collapsible=0;dropTarget=0;fillColor=none;points=[[0,0.5],[1,0.5]];portConstraint=eastwest;fontSize=16;" vertex="1" parent="M_g8mWorpOVJh70sfZON-17">
          <mxGeometry y="107" width="240" height="14" as="geometry" />
        </mxCell>
        <mxCell id="M_g8mWorpOVJh70sfZON-27" value="" style="shape=partialRectangle;html=1;whiteSpace=wrap;connectable=0;strokeColor=inherit;overflow=hidden;fillColor=none;top=0;left=0;bottom=0;right=0;pointerEvents=1;fontSize=16;" vertex="1" parent="M_g8mWorpOVJh70sfZON-26">
          <mxGeometry width="80" height="14" as="geometry">
            <mxRectangle width="80" height="14" as="alternateBounds" />
          </mxGeometry>
        </mxCell>
        <mxCell id="M_g8mWorpOVJh70sfZON-28" value="" style="shape=partialRectangle;html=1;whiteSpace=wrap;connectable=0;strokeColor=inherit;overflow=hidden;fillColor=none;top=0;left=0;bottom=0;right=0;pointerEvents=1;fontSize=16;" vertex="1" parent="M_g8mWorpOVJh70sfZON-26">
          <mxGeometry x="80" width="80" height="14" as="geometry">
            <mxRectangle width="80" height="14" as="alternateBounds" />
          </mxGeometry>
        </mxCell>
        <mxCell id="M_g8mWorpOVJh70sfZON-29" value="" style="shape=partialRectangle;html=1;whiteSpace=wrap;connectable=0;strokeColor=inherit;overflow=hidden;fillColor=none;top=0;left=0;bottom=0;right=0;pointerEvents=1;fontSize=16;" vertex="1" parent="M_g8mWorpOVJh70sfZON-26">
          <mxGeometry x="160" width="80" height="14" as="geometry">
            <mxRectangle width="80" height="14" as="alternateBounds" />
          </mxGeometry>
        </mxCell>
        <mxCell id="M_g8mWorpOVJh70sfZON-69" value="Pedidos" style="shape=ext;double=1;rounded=0;whiteSpace=wrap;html=1;" vertex="1" parent="1">
          <mxGeometry x="1176" y="350" width="104" height="20" as="geometry" />
        </mxCell>
        <mxCell id="M_g8mWorpOVJh70sfZON-74" value="Pedidos" style="shape=ext;double=1;rounded=0;whiteSpace=wrap;html=1;" vertex="1" parent="1">
          <mxGeometry x="1040" y="350" width="104" height="20" as="geometry" />
        </mxCell>
        <mxCell id="M_g8mWorpOVJh70sfZON-76" value="" style="group" vertex="1" connectable="0" parent="1">
          <mxGeometry x="40" y="40" width="540" height="320" as="geometry" />
        </mxCell>
        <mxCell id="M_g8mWorpOVJh70sfZON-1" value="" style="shape=ext;double=1;rounded=1;whiteSpace=wrap;html=1;" vertex="1" parent="M_g8mWorpOVJh70sfZON-76">
          <mxGeometry width="540" height="320" as="geometry" />
        </mxCell>
        <mxCell id="M_g8mWorpOVJh70sfZON-2" value="inÃ­cio" style="ellipse;shape=doubleEllipse;whiteSpace=wrap;html=1;" vertex="1" parent="M_g8mWorpOVJh70sfZON-76">
          <mxGeometry x="205" y="30" width="130" height="50" as="geometry" />
        </mxCell>
        <mxCell id="M_g8mWorpOVJh70sfZON-10" value="Pedidos" style="shape=ext;double=1;rounded=0;whiteSpace=wrap;html=1;" vertex="1" parent="M_g8mWorpOVJh70sfZON-76">
          <mxGeometry x="185" y="240" width="150" height="20" as="geometry" />
        </mxCell>
        <mxCell id="M_g8mWorpOVJh70sfZON-11" value="Setores" style="shape=ext;double=1;rounded=0;whiteSpace=wrap;html=1;" vertex="1" parent="M_g8mWorpOVJh70sfZON-76">
          <mxGeometry x="299" y="200" width="150" height="20" as="geometry" />
        </mxCell>
        <mxCell id="M_g8mWorpOVJh70sfZON-12" value="MatÃ©ria-Prima" style="shape=ext;double=1;rounded=0;whiteSpace=wrap;html=1;" vertex="1" parent="M_g8mWorpOVJh70sfZON-76">
          <mxGeometry x="55" y="200" width="150" height="20" as="geometry" />
        </mxCell>
        <mxCell id="M_g8mWorpOVJh70sfZON-13" value="Fornecedor" style="shape=ext;double=1;rounded=0;whiteSpace=wrap;html=1;" vertex="1" parent="M_g8mWorpOVJh70sfZON-76">
          <mxGeometry x="299" y="150" width="150" height="20" as="geometry" />
        </mxCell>
        <mxCell id="M_g8mWorpOVJh70sfZON-14" value="Clientes" style="shape=ext;double=1;rounded=0;whiteSpace=wrap;html=1;" vertex="1" parent="M_g8mWorpOVJh70sfZON-76">
          <mxGeometry x="55" y="150" width="150" height="20" as="geometry" />
        </mxCell>
        <mxCell id="M_g8mWorpOVJh70sfZON-77" value="Pedidos" style="shape=ext;double=1;rounded=0;whiteSpace=wrap;html=1;" vertex="1" parent="1">
          <mxGeometry x="1320" y="350" width="104" height="20" as="geometry" />
        </mxCell>
      </root>
    </mxGraphModel>
  </diagram>
</mxfile>
